<?xml version="1.0" encoding="UTF-8" standalone="no"?>
<!-- Created with Inkscape (http://www.inkscape.org/) -->

<svg
   width="210mm"
   height="297mm"
   viewBox="0 0 210 297"
   version="1.1"
   id="svg5"
   inkscape:version="1.2.2 (732a01da63, 2022-12-09)"
   sodipodi:docname="Time Tracker Display layout.svg"
   xmlns:inkscape="http://www.inkscape.org/namespaces/inkscape"
   xmlns:sodipodi="http://sodipodi.sourceforge.net/DTD/sodipodi-0.dtd"
   xmlns="http://www.w3.org/2000/svg"
   xmlns:svg="http://www.w3.org/2000/svg">
  <sodipodi:namedview
     id="namedview7"
     pagecolor="#ffffff"
     bordercolor="#000000"
     borderopacity="0.25"
     inkscape:showpageshadow="2"
     inkscape:pageopacity="0.0"
     inkscape:pagecheckerboard="0"
     inkscape:deskcolor="#d1d1d1"
     inkscape:document-units="mm"
     showgrid="false"
     inkscape:zoom="0.125"
     inkscape:cx="1000"
     inkscape:cy="1576"
     inkscape:window-width="1920"
     inkscape:window-height="1137"
     inkscape:window-x="1912"
     inkscape:window-y="-8"
     inkscape:window-maximized="1"
     inkscape:current-layer="layer1" />
  <defs
     id="defs2" />
  <g
     inkscape:label="Ebene 1"
     inkscape:groupmode="layer"
     id="layer1">
    <rect
       style="fill:none;stroke:#000000;stroke-width:1.45076"
       id="rect234"
       width="200"
       height="200"
       x="-200"
       y="96.999985"
       transform="scale(-1,1)" />
    <rect
       style="fill:none;stroke:#000000;stroke-width:0.915045"
       id="rect290"
       width="130"
       height="130"
       x="35"
       y="131.99998" />
    <path
       style="fill:none;stroke:#000000;stroke-width:0.272637"
       d="m 163.77708,133.75207 36.5125,-36.77708"
       id="path346" />
    <path
       style="fill:none;stroke:#000000;stroke-width:0.258857"
       d="m 165.36458,262.07499 34.925,34.66043"
       id="path348" />
    <path
       style="fill:none;stroke:#000000;stroke-width:0.26236"
       d="M 0,296.47083 35.454165,261.81041"
       id="path350" />
    <path
       style="fill:none;stroke:#000000;stroke-width:0.268244"
       d="M 35.718748,132.69374 -0.26458333,96.710406"
       id="path352" />
    <text
       xml:space="preserve"
       style="font-size:21.1667px;text-align:center;text-anchor:middle;fill:#000000;fill-opacity:1;stroke:#000000;stroke-width:0.499999"
       x="100.04134"
       y="165.00711"
       id="text408"><tspan
         sodipodi:role="line"
         id="tspan406"
         style="font-size:21.1667px;text-align:center;text-anchor:middle;fill:#000000;fill-opacity:1;stroke-width:0.5"
         x="100.04134"
         y="165.00711">03.03.25</tspan><tspan
         sodipodi:role="line"
         style="font-size:21.1667px;text-align:center;text-anchor:middle;fill:#000000;fill-opacity:1;stroke-width:0.5"
         x="100.04134"
         y="191.46548"
         id="tspan410">8:14</tspan><tspan
         sodipodi:role="line"
         style="font-size:21.1667px;text-align:center;text-anchor:middle;fill:#000000;fill-opacity:1;stroke-width:0.5"
         x="100.04134"
         y="217.92386"
         id="tspan536">9:50</tspan><tspan
         sodipodi:role="line"
         style="font-size:21.1667px;text-align:center;text-anchor:middle;fill:#000000;fill-opacity:1;stroke-width:0.5"
         x="100.04134"
         y="244.38223"
         id="tspan414">30°C  52%</tspan></text>
    <text
       xml:space="preserve"
       style="font-size:31.75px;text-align:center;text-anchor:middle;fill:#ffffff;stroke:#ffffff;stroke-width:0.499999;stroke-opacity:1;fill-opacity:1"
       x="99.863571"
       y="126.34373"
       id="text522"><tspan
         sodipodi:role="line"
         id="tspan520"
         style="font-size:31.75px;stroke-width:0.5;stroke:#ffffff;stroke-opacity:1;fill:#ffffff;fill-opacity:1"
         x="99.863571"
         y="126.34373">3:25</tspan></text>
    <text
       xml:space="preserve"
       style="font-size:31.75px;text-align:center;text-anchor:middle;fill:#000000;stroke:#000000;stroke-width:0.499999;fill-opacity:1"
       x="-197.89915"
       y="29.195118"
       id="text526"
       transform="rotate(-90)"><tspan
         sodipodi:role="line"
         id="tspan524"
         style="font-size:31.75px;stroke-width:0.5;fill:#000000;fill-opacity:1"
         x="-197.89915"
         y="29.195118">1:12</tspan></text>
    <text
       xml:space="preserve"
       style="font-size:31.75px;text-align:center;text-anchor:middle;fill:#000000;stroke:#000000;stroke-width:0.499999;fill-opacity:1"
       x="196.79535"
       y="-170.34738"
       id="text530"
       transform="rotate(90)"><tspan
         sodipodi:role="line"
         id="tspan528"
         style="font-size:31.75px;stroke-width:0.5;fill:#000000;fill-opacity:1"
         x="196.79535"
         y="-170.34738">5:13</tspan></text>
    <text
       xml:space="preserve"
       style="font-size:31.75px;text-align:center;text-anchor:middle;fill:#000000;stroke:#000000;stroke-width:0.499999;fill-opacity:1"
       x="-100.01241"
       y="-268.16049"
       id="text534"
       transform="scale(-1)"><tspan
         sodipodi:role="line"
         id="tspan532"
         style="font-size:31.75px;stroke-width:0.5;fill:#000000;fill-opacity:1"
         x="-100.01241"
         y="-268.16049">0:00</tspan></text>
    <path
       style="fill:#000000;fill-opacity:1;stroke:#000000;stroke-width:2.67253;stroke-opacity:1"
       d="M 68.589358,433.09054 5.6687721,370.15804 H 378.28282 750.89687 l -14.8151,15.20279 c -8.1483,8.36154 -36.13485,36.68117 -62.19233,62.93251 l -47.37723,47.72971 H 379.01107 131.50994 Z m 212.132032,45.85791 c 14.32541,-3.26195 22.53924,-13.25083 22.59107,-27.47313 0.0313,-8.56484 -3.58757,-15.15938 -10.58406,-19.28742 l -4.93792,-2.91344 4.59718,-3.0699 c 9.22737,-6.16183 12.04923,-19.45295 6.06814,-28.58124 -5.78027,-8.8218 -26.90749,-12.12877 -43.68984,-6.8386 l -7.98569,2.51727 v 6.8128 c 0,3.74704 0.1591,6.80985 0.35355,6.80625 0.19445,-0.004 4.17193,-1.57948 8.83883,-3.50196 17.32634,-7.1374 32.44633,-3.43401 32.12723,7.86903 -0.16737,5.92882 -6.87829,12.60026 -12.7041,12.62935 -8.01128,0.04 -10.23074,1.41257 -10.23074,6.32693 0,4.56811 0.0618,4.60913 8.3668,5.54873 10.03004,1.13477 15.21599,4.72716 16.46945,11.40866 1.17537,6.26524 -1.59041,14.40973 -5.83865,17.19329 -9.06405,5.93899 -21.80067,4.78565 -37.73593,-3.41709 -0.58336,-0.30029 -1.06066,2.63789 -1.06066,6.52929 v 7.07526 l 6.71752,2.15766 c 11.9401,3.83515 19.07644,4.38543 28.63782,2.20826 z m 214.71158,-2.61142 c 14.43195,-7.4015 20.03793,-25.06107 12.62325,-39.76485 -4.45577,-8.83609 -11.97897,-12.72052 -26.57399,-13.72088 l -11.25622,-0.77152 v -10.40452 -10.40452 h 20.5061 20.50609 v -5.65686 -5.65685 h -26.87005 -26.87006 v 22.38487 22.38488 l 14.73694,-0.11101 c 12.83404,-0.0967 15.25362,0.27062 18.73833,2.8446 8.52079,6.29386 9.339,16.73463 1.95873,24.99459 -7.14819,8.00021 -21.25292,7.46073 -38.61598,-1.47698 -0.58337,-0.30029 -1.06066,2.70479 -1.06066,6.67794 0,6.50611 0.37092,7.36495 3.7329,8.64317 11.98809,4.55787 29.59747,4.57524 38.44462,0.0379 z m -148.24354,-7.18404 v -8.48528 h -7.77817 -7.77818 v 8.48528 8.48528 h 7.77818 7.77817 z m 89.09545,2.82842 v -5.65685 h -22.6726 -22.6726 l 10.50759,-9.16416 c 24.09884,-21.01774 31.66525,-32.93987 30.2504,-47.66449 -0.81071,-8.43715 -4.23817,-13.45423 -12.24784,-17.92825 -7.50591,-4.19263 -22.90647,-4.57742 -34.70264,-0.86707 l -7.85928,2.47205 v 6.87747 c 0,3.78262 0.1591,6.87453 0.35356,6.87093 0.19445,-0.004 4.17193,-1.57948 8.83883,-3.50196 14.04188,-5.7844 28.73128,-3.9748 31.22435,3.84655 1.80195,5.65312 0.75867,12.56999 -2.81599,18.66969 -3.33487,5.69052 -26.0076,28.47597 -34.81308,34.98613 -3.64715,2.69647 -4.20188,4.00499 -4.20188,9.91171 v 6.80511 h 30.40559 30.40559 z m -89.09545,-51.61879 v -9.19239 h -7.77817 -7.77818 v 9.19239 9.19239 h 7.77818 7.77817 z"
       id="path1457"
       transform="scale(0.26458333)" />
  </g>
</svg>
